#Comment line ignore any data following # character 
#Hierarchical Translation and Rotation (.htr) file 
[Header]	
#Header keywords are followed by a single value 
FileType HTR		#Single word string
DataType HTRS		#Translation followed by rotation and scale data
FileVersion 1		#integer
NumSegments 64		#integer
NumFrames 3		#integer
DataFrameRate 30		#integer, data frame rate in this file
EulerRotationOrder ZYX
CalibrationUnits mm
RotationUnits Degrees
GlobalAxisofGravity Y
BoneLengthAxis Y
ScaleFactor 1.00
[SegmentNames&Hierarchy]
#CHILD	PARENT
Pinger_Root GLOBAL
Pelvis Pinger_Root
L_Hip Pelvis
R_Hip Pelvis
Rear_Leg01 Pelvis
Spine1 Pelvis
L_Leg01 L_Hip
L_Leg02 L_Leg01
L_Leg03 L_Leg02
L_Foot L_Leg03
L_Toe1_01 L_Foot
L_Toe2_01 L_Foot
L_Toe3_01 L_Foot
planeAlignerLeft L_Foot
L_Toe1_02 L_Toe1_01
L_Toe1_03 L_Toe1_02
L_Toe2_02 L_Toe2_01
L_Toe2_03 L_Toe2_02
L_Toe3_02 L_Toe3_01
L_Toe3_03 L_Toe3_02
planeLockWeightLeft planeAlignerLeft
R_Leg01 R_Hip
R_Leg02 R_Leg01
R_Leg03 R_Leg02
R_Foot R_Leg03
planeAlignerRight R_Foot
R_Toe1_01 R_Foot
R_Toe2_01 R_Foot
R_Toe3_01 R_Foot
planeLockWeightRight planeAlignerRight
R_Toe1_02 R_Toe1_01
R_Toe1_03 R_Toe1_02
R_Toe2_02 R_Toe2_01
R_Toe2_03 R_Toe2_02
R_Toe3_02 R_Toe3_01
R_Toe3_03 R_Toe3_02
Rear_Leg02 Rear_Leg01
Rear_Leg03 Rear_Leg02
Rear_Leg04 Rear_Leg03
Rear_Foot Rear_Leg04
planeAlignerCenter Rear_Foot
Rear_Toe1_01 Rear_Foot
Rear_Toe2_01 Rear_Foot
Rear_Toe3_01 Rear_Foot
planeLockWeightCenter planeAlignerCenter
Rear_Toe1_02 Rear_Toe1_01
Rear_Toe1_03 Rear_Toe1_02
Rear_Toe2_02 Rear_Toe2_01
Rear_Toe2_03 Rear_Toe2_02
Rear_Toe3_02 Rear_Toe3_01
Rear_Toe3_03 Rear_Toe3_02
Back_Bone Spine1
Head Spine1
Motor_Bone Back_Bone
Ping_Mechanism Back_Bone
BN_LookIK Head
bottomMouth Head
L_Mouth01 Head
L_mouthFront Head
mouthGun Head
R_Mouth01 Head
R_mouthFront Head
TopMouth Head
weapon_bone Head
[BasePosition]
#SegmentName Tx, Ty, Tz, Rx, Ry, Rz, BoneLength
Pinger_Root 0.000000 0.000000 0.000000 -90.000000 0.000000 0.000000 10.000000 
Pelvis 0.000000 0.000000 0.000000 0.000000 0.000000 0.000000 10.000000 
L_Hip 0.000000 0.000000 0.000000 0.000000 0.000000 0.000000 10.000000 
R_Hip 0.000000 0.000000 0.000000 0.000000 0.000000 0.000000 10.000000 
Rear_Leg01 0.000000 0.000000 0.000000 0.000000 0.000000 0.000000 10.000000 
Spine1 0.000000 0.000000 0.000000 0.000000 0.000000 0.000000 10.000000 
L_Leg01 0.000000 0.000000 0.000000 0.000000 0.000000 0.000000 10.000000 
L_Leg02 0.000000 0.000000 0.000000 0.000000 0.000000 0.000000 10.000000 
L_Leg03 0.000000 0.000000 0.000000 0.000000 0.000000 0.000000 10.000000 
L_Foot 0.000000 0.000000 0.000000 0.000000 0.000000 0.000000 10.000000 
L_Toe1_01 0.000000 0.000000 0.000000 0.000000 0.000000 0.000000 10.000000 
L_Toe2_01 0.000000 0.000000 0.000000 0.000000 0.000000 0.000000 10.000000 
L_Toe3_01 0.000000 0.000000 0.000000 0.000000 0.000000 0.000000 10.000000 
planeAlignerLeft 0.000000 0.000000 0.000000 0.000000 0.000000 0.000000 10.000000 
L_Toe1_02 0.000000 0.000000 0.000000 0.000000 0.000000 0.000000 10.000000 
L_Toe1_03 0.000000 0.000000 0.000000 0.000000 0.000000 0.000000 10.000000 
L_Toe2_02 0.000000 0.000000 0.000000 0.000000 0.000000 0.000000 10.000000 
L_Toe2_03 0.000000 0.000000 0.000000 0.000000 0.000000 0.000000 10.000000 
L_Toe3_02 0.000000 0.000000 0.000000 0.000000 0.000000 0.000000 10.000000 
L_Toe3_03 0.000000 0.000000 0.000000 0.000000 0.000000 0.000000 10.000000 
planeLockWeightLeft 0.000000 0.000000 0.000000 0.000000 0.000000 0.000000 10.000000 
R_Leg01 0.000000 0.000000 0.000000 0.000000 0.000000 0.000000 10.000000 
R_Leg02 0.000000 0.000000 0.000000 0.000000 0.000000 0.000000 10.000000 
R_Leg03 0.000000 0.000000 0.000000 0.000000 0.000000 0.000000 10.000000 
R_Foot 0.000000 0.000000 0.000000 0.000000 0.000000 0.000000 10.000000 
planeAlignerRight 0.000000 0.000000 0.000000 0.000000 0.000000 0.000000 10.000000 
R_Toe1_01 0.000000 0.000000 0.000000 0.000000 0.000000 0.000000 10.000000 
R_Toe2_01 0.000000 0.000000 0.000000 0.000000 0.000000 0.000000 10.000000 
R_Toe3_01 0.000000 0.000000 0.000000 0.000000 0.000000 0.000000 10.000000 
planeLockWeightRight 0.000000 0.000000 0.000000 0.000000 0.000000 0.000000 10.000000 
R_Toe1_02 0.000000 0.000000 0.000000 0.000000 0.000000 0.000000 10.000000 
R_Toe1_03 0.000000 0.000000 0.000000 0.000000 0.000000 0.000000 10.000000 
R_Toe2_02 0.000000 0.000000 0.000000 0.000000 0.000000 0.000000 10.000000 
R_Toe2_03 0.000000 0.000000 0.000000 0.000000 0.000000 0.000000 10.000000 
R_Toe3_02 0.000000 0.000000 0.000000 0.000000 0.000000 0.000000 10.000000 
R_Toe3_03 0.000000 0.000000 0.000000 0.000000 0.000000 0.000000 10.000000 
Rear_Leg02 0.000000 0.000000 0.000000 0.000000 0.000000 0.000000 10.000000 
Rear_Leg03 0.000000 0.000000 0.000000 0.000000 0.000000 0.000000 10.000000 
Rear_Leg04 0.000000 0.000000 0.000000 0.000000 0.000000 0.000000 10.000000 
Rear_Foot 0.000000 0.000000 0.000000 0.000000 0.000000 0.000000 10.000000 
planeAlignerCenter 0.000000 0.000000 0.000000 0.000000 0.000000 0.000000 10.000000 
Rear_Toe1_01 0.000000 0.000000 0.000000 0.000000 0.000000 0.000000 10.000000 
Rear_Toe2_01 0.000000 0.000000 0.000000 0.000000 0.000000 0.000000 10.000000 
Rear_Toe3_01 0.000000 0.000000 0.000000 0.000000 0.000000 0.000000 10.000000 
planeLockWeightCenter 0.000000 0.000000 0.000000 0.000000 0.000000 0.000000 10.000000 
Rear_Toe1_02 0.000000 0.000000 0.000000 0.000000 0.000000 0.000000 10.000000 
Rear_Toe1_03 0.000000 0.000000 0.000000 0.000000 0.000000 0.000000 10.000000 
Rear_Toe2_02 0.000000 0.000000 0.000000 0.000000 0.000000 0.000000 10.000000 
Rear_Toe2_03 0.000000 0.000000 0.000000 0.000000 0.000000 0.000000 10.000000 
Rear_Toe3_02 0.000000 0.000000 0.000000 0.000000 0.000000 0.000000 10.000000 
Rear_Toe3_03 0.000000 0.000000 0.000000 0.000000 0.000000 0.000000 10.000000 
Back_Bone 0.000000 0.000000 0.000000 0.000000 0.000000 0.000000 10.000000 
Head 0.000000 0.000000 0.000000 0.000000 0.000000 0.000000 10.000000 
Motor_Bone 0.000000 0.000000 0.000000 0.000000 0.000000 0.000000 10.000000 
Ping_Mechanism 0.000000 0.000000 0.000000 0.000000 0.000000 0.000000 10.000000 
BN_LookIK 0.000000 0.000000 0.000000 0.000000 0.000000 0.000000 10.000000 
bottomMouth 0.000000 0.000000 0.000000 0.000000 0.000000 0.000000 10.000000 
L_Mouth01 0.000000 0.000000 0.000000 0.000000 0.000000 0.000000 10.000000 
L_mouthFront 0.000000 0.000000 0.000000 0.000000 0.000000 0.000000 10.000000 
mouthGun 0.000000 0.000000 0.000000 0.000000 0.000000 0.000000 10.000000 
R_Mouth01 0.000000 0.000000 0.000000 0.000000 0.000000 0.000000 10.000000 
R_mouthFront 0.000000 0.000000 0.000000 0.000000 0.000000 0.000000 10.000000 
TopMouth 0.000000 0.000000 0.000000 0.000000 0.000000 0.000000 10.000000 
weapon_bone 0.000000 0.000000 0.000000 0.000000 0.000000 0.000000 10.000000 
#Beginning of Data. Separated by tabs
#Fr	Tx	Ty	Tz	Rx	Ry	Rz	SF
[Pinger_Root]
3 0.000000 0.000038 0.000000 -0.000075 -0.000000 -0.000020 0.000038
4 0.000000 0.000057 0.000000 -0.000075 -0.000000 -0.000020 0.000057
5 0.000000 0.000076 0.000000 -0.000075 -0.000000 -0.000020 0.000076
[Pelvis]
3 38.392597 829.121094 4383.566406 -81.570656 -82.266502 74.579506 4461.453613
4 2.718448 755.612732 4333.784668 -74.209770 -78.493446 68.073761 4399.164063
5 -39.575653 694.024719 4276.859375 -70.287819 -74.636467 65.012772 4332.985352
[L_Hip]
3 5.766392 125.831482 872.656799 160.057358 -46.480122 121.856003 881.701050
4 5.766392 125.831482 872.656799 159.951218 -47.651276 121.319389 881.701050
5 5.766392 125.831482 872.656799 159.836182 -49.371071 120.540207 881.701050
[R_Hip]
3 5.765438 125.836372 -872.654907 38.038586 50.731987 125.544250 881.699829
4 5.765438 125.836372 -872.654907 37.935951 51.988495 125.315819 881.699829
5 5.765438 125.836372 -872.654907 37.821976 53.244736 125.077011 881.699829
[Rear_Leg01]
3 -192.298416 -925.602966 -0.001907 171.252838 4.186901 -158.232269 945.367432
4 -192.298416 -925.602966 -0.001907 173.167419 6.185847 -156.451340 945.367432
5 -192.298416 -925.602966 -0.001907 175.693604 8.123392 -153.973358 945.367432
[Spine1]
3 290.604584 5.007505 0.000477 6.051351 -2.174565 15.723831 290.647736
4 290.604584 5.007505 0.000477 4.687722 -3.820708 12.499991 290.647736
5 290.604584 5.007505 0.000477 3.415954 -5.540462 9.308620 290.647736
[L_Leg01]
3 761.932007 -0.002384 -0.069261 18.540457 -20.414820 -6.052710 761.932068
4 761.932007 -0.002384 -0.069261 14.228964 -24.945930 -3.401023 761.932068
5 761.932007 -0.002384 -0.069261 9.555046 -29.865623 -0.985779 761.932068
[L_Leg02]
3 1441.140503 -0.000954 -0.000715 2.583627 -0.193944 -129.194611 1441.140503
4 1441.140503 -0.000954 -0.000715 2.573576 -0.198080 -129.282425 1441.140503
5 1441.140503 -0.000954 -0.000715 2.516046 -0.205140 -129.217392 1441.140503
[L_Leg03]
3 1686.963989 -0.000715 -0.000954 -0.028273 0.011827 117.892731 1686.963989
4 1686.963989 -0.000715 -0.000954 -0.027433 0.010383 117.769608 1686.963989
5 1686.963989 -0.000715 -0.000954 -0.025769 0.009877 117.385338 1686.963989
[L_Foot]
3 3041.570068 -30.715107 11.297464 3.271405 13.038735 54.187344 3041.746094
4 3041.570068 -30.715107 11.297464 4.686967 13.020870 53.140511 3041.746094
5 3041.570068 -30.715107 11.297464 6.102596 13.028203 52.093552 3041.746094
[L_Toe1_01]
3 -188.216690 -224.732346 -21.137953 94.079842 -6.862822 -171.970108 293.899567
4 -188.216690 -224.732346 -21.137953 94.260193 -6.862978 -171.969940 293.899567
5 -188.216690 -224.732346 -21.137953 94.757561 -6.862341 -171.970032 293.899567
[L_Toe2_01]
3 200.746536 -219.926590 148.838394 -89.772385 -26.236687 -52.675076 332.896027
4 200.746536 -219.926590 148.838394 -89.646622 -26.199173 -52.673653 332.896027
5 200.746536 -219.926590 148.838394 -89.520920 -26.161676 -52.672153 332.896027
[L_Toe3_01]
3 188.832520 -219.859131 -191.078659 -100.227478 13.731560 -67.653084 347.140900
4 188.832520 -219.859131 -191.078659 -100.904381 13.559409 -67.620262 347.140900
5 188.832520 -219.859131 -191.078659 -101.580933 13.387633 -67.585373 347.140900
[planeAlignerLeft]
3 32.990112 -593.019165 101.088066 169.306686 -76.298271 89.968506 602.477295
4 32.990112 -593.019104 101.087944 169.306686 -76.298271 89.968506 602.477234
5 32.990112 -593.018982 101.087814 169.306671 -76.298256 89.968483 602.477051
[L_Toe1_02]
3 413.761139 0.000477 0.000000 0.001384 -26.005680 0.001384 413.761139
4 413.761139 0.000477 0.000000 0.001384 -26.002056 0.001384 413.761139
5 413.761139 0.000477 0.000000 0.001384 -25.998425 0.001384 413.761139
[L_Toe1_03]
3 464.317322 0.000358 -0.000089 0.003734 53.359097 0.003734 464.317322
4 464.317322 0.000358 -0.000089 0.003734 53.359097 0.003734 464.317322
5 464.317322 0.000358 -0.000089 0.003734 53.359104 0.003734 464.317322
[L_Toe2_02]
3 342.235809 -0.000477 0.000238 0.001188 -72.402016 0.001188 342.235809
4 342.235809 -0.000477 0.000238 0.001188 -72.402016 0.001188 342.235809
5 342.235809 -0.000477 0.000238 0.001188 -72.402016 0.001188 342.235809
[L_Toe2_03]
3 420.210846 -0.000715 0.000000 0.029090 85.375511 0.029090 420.210846
4 420.210846 -0.000715 0.000000 0.029090 85.375565 0.029090 420.210846
5 420.210846 -0.000715 0.000000 0.029090 85.375511 0.029090 420.210846
[L_Toe3_02]
3 329.270111 0.000954 0.000000 0.001178 -80.501648 0.001178 329.270111
4 329.270111 0.000954 0.000000 0.001178 -80.512306 0.001178 329.270111
5 329.270111 0.000954 0.000000 0.001178 -80.522957 0.001178 329.270111
[L_Toe3_03]
3 439.137451 -0.001907 0.000954 -179.995956 78.605698 -179.992447 439.137451
4 439.137451 -0.001907 0.000954 -179.995956 78.605698 -179.992447 439.137451
5 439.137451 -0.001907 0.000954 -179.995956 78.605721 -179.992447 439.137451
[planeLockWeightLeft]
3 -0.001068 0.000000 -0.000296 -0.011826 -0.004376 0.005620 0.001108
4 -0.001068 0.000000 -0.000296 -0.011826 -0.004376 0.005620 0.001108
5 -0.001068 0.000000 -0.000296 -0.011826 -0.004376 0.005620 0.001108
[R_Leg01]
3 761.455627 -0.001907 -0.000358 122.417236 -19.763565 23.566299 761.455688
4 761.455627 -0.001907 -0.000358 125.399887 -28.148924 14.065355 761.455688
5 761.455627 -0.001907 -0.000358 129.639389 -36.494267 3.050019 761.455688
[R_Leg02]
3 1441.140625 0.000000 -0.000238 -2.168633 -0.607280 -143.368362 1441.140625
4 1441.140625 0.000000 -0.000238 -2.547510 -0.789886 -156.469482 1441.140625
5 1441.140625 0.000000 -0.000238 -2.843121 -0.880983 -168.795868 1441.140625
[R_Leg03]
3 1686.963989 0.000954 0.001431 0.095573 -0.053845 135.978546 1686.963989
4 1686.963989 0.000954 0.001431 0.099229 -0.058342 136.944092 1686.963989
5 1686.963989 0.000954 0.001431 0.097556 -0.053484 136.640900 1686.963989
[R_Foot]
3 3041.560059 -30.531288 -11.204481 2.257677 -23.980673 61.499344 3041.734131
4 3041.560059 -30.531288 -11.204481 5.486237 -23.265751 63.571445 3041.734131
5 3041.560059 -30.531288 -11.204481 10.036069 -22.383080 65.066109 3041.734131
[planeAlignerRight]
3 -83.343811 -738.918030 -394.370697 -36.635918 -71.972893 -63.960575 841.709106
4 -75.836792 -752.952332 -356.180939 -36.768188 -73.675667 -62.941280 836.393005
5 -64.896240 -770.448242 -300.586548 -36.922775 -76.150742 -61.456959 829.550720
[R_Toe1_01]
3 -188.383347 -224.864899 21.052242 76.733978 4.370798 -163.102722 294.101532
4 -188.383347 -224.864899 21.052242 78.357018 4.072999 -161.848923 294.101532
5 -188.383347 -224.864899 21.052242 80.728760 3.658997 -159.990784 294.101532
[R_Toe2_01]
3 200.637817 -220.002121 -148.787384 -92.584824 31.937275 -59.898022 332.857574
4 200.637817 -220.002121 -148.787384 -94.436768 29.924528 -61.847473 332.857574
5 200.637817 -220.002121 -148.787384 -96.124931 26.980360 -63.224159 332.857574
[R_Toe3_01]
3 188.606735 -220.092957 191.126343 -75.339310 -2.585183 -77.475235 347.192566
4 188.606735 -220.092957 191.126343 -74.996117 -3.450898 -76.450119 347.192566
5 188.606735 -220.092957 191.126343 -74.564117 -4.772862 -74.662247 347.192566
[planeLockWeightRight]
3 843.749207 0.000305 -0.000257 -0.011823 -0.004379 -0.000027 843.749207
4 499.999603 0.000305 -0.000176 -0.011823 -0.004379 -0.000027 499.999603
5 156.250000 0.000305 -0.000095 -0.011823 -0.004379 -0.000027 156.250000
[R_Toe1_02]
3 413.762085 0.000477 -0.000119 0.001391 -25.054499 0.001391 413.762085
4 413.762085 0.000477 -0.000119 0.001391 -25.121031 0.001391 413.762085
5 413.762085 0.000477 -0.000119 0.001390 -25.187561 0.001390 413.762085
[R_Toe1_03]
3 464.317810 0.000000 0.001088 0.005792 66.620728 0.005792 464.317810
4 464.317810 0.000000 0.001088 0.005735 66.383972 0.005735 464.317810
5 464.317810 0.000000 0.001088 0.005569 65.667351 0.005569 464.317810
[R_Toe2_02]
3 342.234741 -0.000954 0.000238 0.001310 -37.196743 0.001310 342.234741
4 342.234741 -0.000954 0.000238 0.001277 -43.658962 0.001277 342.234741
5 342.234741 -0.000954 0.000238 0.001245 -50.877949 0.001245 342.234741
[R_Toe2_03]
3 420.210846 0.000715 -0.000268 -0.001537 32.699398 0.006432 420.210846
4 420.210846 0.000715 -0.000268 -0.003280 39.504223 0.000586 420.210846
5 420.210846 0.000715 -0.000268 -0.003493 48.197437 0.000261 420.210846
[R_Toe3_02]
3 329.270355 -0.000477 -0.000954 -0.002409 -59.359493 -0.002409 329.270355
4 329.270355 -0.000477 -0.000954 -0.002395 -61.920578 -0.002395 329.270355
5 329.270355 -0.000477 -0.000954 -0.002380 -65.029396 -0.002380 329.270355
[R_Toe3_03]
3 439.137939 0.000238 0.001431 0.011792 55.891788 0.008134 439.137939
4 439.137939 0.000238 0.001431 0.004477 59.608231 0.004477 439.137939
5 439.137939 0.000238 0.001431 0.005376 64.727798 0.005376 439.137939
[Rear_Leg02]
3 1162.777710 -0.029802 0.005960 -0.373882 1.618176 -121.570457 1162.777710
4 1162.777710 -0.029802 0.005960 -2.087266 6.115225 -118.404907 1162.777710
5 1162.777710 -0.029802 0.005960 -4.518482 11.052763 -113.761940 1162.777710
[Rear_Leg03]
3 607.192505 -0.013351 -0.073195 0.010576 -0.004931 66.350525 607.192505
4 607.192505 -0.013351 -0.073195 0.010518 -0.005052 67.665260 607.192505
5 607.192505 -0.013351 -0.073195 0.010475 -0.005141 68.638535 607.192505
[Rear_Leg04]
3 995.874512 -0.020504 -0.011921 -0.041499 -0.019193 62.417683 995.874573
4 995.874512 -0.020504 -0.011921 -0.039846 -0.019527 65.147270 995.874573
5 995.874512 -0.020504 -0.011921 -0.040207 -0.018772 67.308418 995.874573
[Rear_Foot]
3 3096.176270 -0.067472 -0.041425 122.475227 88.428535 -47.281910 3096.176270
4 3096.176270 -0.067472 -0.041425 73.699104 84.312973 -98.362480 3096.176270
5 3096.176270 -0.067472 -0.041425 68.234962 78.852318 -106.150124 3096.176270
[planeAlignerCenter]
3 -35.381908 -55.510559 -808.489380 12.240772 -0.001473 179.998184 811.164856
4 -66.008705 -89.395744 -834.835327 12.240772 -0.001473 179.998184 842.198853
5 -91.667534 -117.788391 -856.909363 12.240772 -0.001473 179.998184 869.810669
[Rear_Toe1_01]
3 0.653352 83.966492 -371.173737 1.819416 43.557072 92.812210 380.553192
4 0.653352 83.966492 -371.173737 3.228936 44.983509 94.816284 380.553192
5 0.653352 83.966492 -371.173737 4.745756 46.372841 96.921631 380.553192
[Rear_Toe2_01]
3 178.200760 -294.826019 -362.060547 -7.631867 35.352570 -69.243797 499.765686
4 178.200760 -294.826019 -362.060547 -7.982789 35.945248 -71.387932 499.765686
5 178.200760 -294.826019 -362.060547 -8.233723 36.005630 -73.162323 499.765686
[Rear_Toe3_01]
3 -153.359680 -308.780914 -362.060852 2.962425 33.077419 -113.604645 499.952881
4 -153.359680 -308.780914 -362.060852 2.648920 31.104879 -114.504745 499.952881
5 -153.359680 -308.780914 -362.060852 2.361042 27.434433 -115.297379 499.952881
[planeLockWeightCenter]
3 1000.000366 0.000352 -0.000109 -0.011814 -0.004373 -0.000015 1000.000366
4 1000.000366 0.000376 -0.000112 -0.011814 -0.004373 -0.000015 1000.000366
5 1000.000366 0.000399 -0.000114 -0.011814 -0.004373 -0.000015 1000.000366
[Rear_Toe1_02]
3 379.707825 0.194073 0.000477 -0.000767 -33.624729 0.000838 379.707855
4 379.707825 0.194073 0.000477 -0.000767 -33.624729 0.000838 379.707855
5 379.707825 0.194073 0.000477 -0.000767 -33.624729 0.000838 379.707855
[Rear_Toe1_03]
3 500.129700 0.165701 0.000119 -0.001747 55.212318 0.003751 500.129761
4 500.129700 0.165701 0.000119 -0.003869 57.391869 -0.000226 500.129761
5 500.129700 0.165701 0.000119 -0.003940 58.607613 -0.000308 500.129761
[Rear_Toe2_02]
3 340.494507 0.000238 -0.000954 0.001200 -65.878410 0.001200 340.494507
4 340.494507 0.000238 -0.000954 0.001211 -61.720692 0.001211 340.494507
5 340.494507 0.000238 -0.000954 0.001222 -57.562923 0.001222 340.494507
[Rear_Toe2_03]
3 433.103577 0.000000 0.000238 0.005213 63.977276 0.005213 433.103546
4 433.103577 0.000000 0.000238 0.004334 58.538227 0.004334 433.103546
5 433.103577 0.000000 0.000238 0.003708 53.099106 0.003708 433.103546
[Rear_Toe3_02]
3 340.494141 -0.000358 -0.000477 -0.002419 -57.630646 -0.002419 340.494171
4 340.494141 -0.000358 -0.000477 -0.002499 -46.701660 -0.002499 340.494171
5 340.494141 -0.000358 -0.000477 -0.002635 -33.681614 -0.002635 340.494171
[Rear_Toe3_03]
3 433.103577 0.001431 -0.000238 0.000023 53.176533 -0.003662 433.103546
4 433.103577 0.001431 -0.000238 0.000543 40.773186 -0.003303 433.103546
5 433.103577 0.001431 -0.000238 0.006357 27.943960 -0.001804 433.103546
[Back_Bone]
3 1312.175781 -701.934692 0.000954 1.382119 0.014037 -82.646767 1488.125488
4 1312.175781 -701.934692 0.000954 1.297771 0.029358 -80.523918 1488.125488
5 1312.175781 -701.934692 0.000954 1.214077 0.047786 -78.401840 1488.125488
[Head]
3 1406.159424 809.709290 0.001431 -0.027660 -1.296082 6.746497 1622.625488
4 1406.159424 809.709290 0.001431 -0.053377 -1.147115 5.987573 1622.625488
5 1406.159424 809.709290 0.001431 -0.081063 -0.998502 5.228618 1622.625488
[Motor_Bone]
3 1158.364380 -417.834747 0.000477 -4.110365 0.904109 -105.081253 1231.419434
4 1158.364380 -417.834747 0.000477 -5.513655 1.191246 -104.796577 1231.419434
5 1158.364380 -417.834747 0.000477 -3.495545 0.584006 -105.401466 1231.419434
[Ping_Mechanism]
3 1249.267700 -449.605103 11.062155 0.000103 -0.000053 82.120995 1327.756348
4 1263.910278 -456.871033 22.133924 0.000103 -0.000053 82.120995 1344.131836
5 1278.552734 -464.136963 33.205696 0.000103 -0.000053 82.120995 1360.596558
[BN_LookIK]
3 193.241119 1380.371704 -0.002861 0.000000 89.965736 -31.038179 1393.832153
4 193.241119 1380.371704 -0.002861 0.000000 89.965736 -31.038179 1393.832153
5 193.241119 1380.371704 -0.002861 0.000000 89.965736 -31.038179 1393.832153
[bottomMouth]
3 -435.092926 615.759399 -0.000954 -0.000022 0.000016 73.527184 753.966492
4 -435.092926 615.759399 -0.000954 -0.000022 0.000016 73.527184 753.966492
5 -435.092926 615.759399 -0.000954 -0.000022 0.000016 73.527184 753.966492
[L_Mouth01]
3 554.440979 7.658243 838.222046 150.204178 23.759130 109.605339 1005.027161
4 554.440979 7.658243 838.222046 150.204178 23.759130 109.605339 1005.027161
5 554.440979 7.658243 838.222046 150.204178 23.759130 109.605339 1005.027161
[L_mouthFront]
3 551.629089 934.514771 339.150421 0.000081 2.804060 79.119301 1136.941284
4 551.629089 934.514771 339.150421 0.000081 2.804060 79.119301 1136.941284
5 551.629089 934.514771 339.150421 0.000081 2.804060 79.119301 1136.941284
[mouthGun]
3 55.332661 1627.420898 0.000000 0.000023 0.000009 -11.038128 1628.361328
4 55.332661 1627.420898 0.000000 0.000023 0.000009 -11.038128 1628.361328
5 55.332661 1627.420898 0.000000 0.000023 0.000009 -11.038128 1628.361328
[R_Mouth01]
3 554.442383 7.659197 -838.223938 29.795891 -23.759109 109.605331 1005.029541
4 554.442383 7.659197 -838.223938 29.795891 -23.759109 109.605331 1005.029541
5 554.442383 7.659197 -838.223938 29.795891 -23.759109 109.605331 1005.029541
[R_mouthFront]
3 551.629089 934.514282 -339.151367 0.000029 -2.803930 79.119133 1136.941162
4 551.629089 934.514282 -339.151367 0.000029 -2.803930 79.119133 1136.941162
5 551.629089 934.514282 -339.151367 0.000029 -2.803930 79.119133 1136.941162
[TopMouth]
3 461.269867 -56.106091 -0.008583 -0.000059 -0.000268 92.025169 464.669525
4 461.269867 -56.106091 -0.008583 -0.000059 -0.000268 92.025169 464.669525
5 461.269867 -56.106091 -0.008583 -0.000059 -0.000268 92.025169 464.669525
[weapon_bone]
3 -987.239868 1448.372803 0.001431 0.000000 89.965736 -31.038221 1752.833740
4 -987.239868 1448.372803 0.001431 0.000000 89.965736 -31.038221 1752.833740
5 -987.239868 1448.372803 0.001431 0.000000 89.965736 -31.038221 1752.833740
